<svg width="24" height="24" viewBox="0 0 24 24" fill="none" xmlns="http://www.w3.org/2000/svg">
<path d="M9.68892 23L12.267 20.4219H18.7553L23 16.1772V1H3.95561L1 3.95561V20.4219H6.15625V23H9.68892ZM2.28906 19.1328V4.4897L4.4897 2.28906H21.7109V15.6431L18.2212 19.1328H11.733L9.15483 21.7109H7.44531V19.1328H2.28906Z" fill="#fff" stroke="#fff" stroke-width="0.5"/>
<path d="M8.77734 20.0444L12.267 16.5547H17.4663L20.4219 13.5991V3.57812H4.86719V16.5547H8.77734V20.0444ZM6.15625 15.2656V4.86719H19.1328V13.065L16.9322 15.2656H11.733L10.0664 16.9322V15.2656H6.15625Z" fill="#fff" stroke="#fff" stroke-width="0.5"/>
<path d="M11.3555 8.08984H12.6445V12.043H11.3555V8.08984Z" fill="#fff" stroke="#fff" stroke-width="0.5"/>
<path d="M15.2656 8.08984H16.5547V12.043H15.2656V8.08984Z" fill="#fff" stroke="#fff" stroke-width="0.5"/>
</svg>
