<svg width="24" height="24" viewBox="0 0 24 24" fill="none" xmlns="http://www.w3.org/2000/svg">
<g clip-path="url(#clip0)">
<path d="M13.896 11.8172C13.4553 10.5097 12.038 9.80702 10.7305 10.2478C9.50506 10.6608 8.79739 11.9408 9.0992 13.1983C9.9986 16.3252 13.2884 19.1314 16.3014 21.5158C16.5178 21.6871 16.832 21.6507 17.0034 21.4343C17.1748 21.2179 17.1384 20.9037 16.922 20.7323C14.0299 18.4438 10.877 15.7646 10.0595 12.9225C9.83076 12.1263 10.2907 11.2955 11.0869 11.0667C11.883 10.8379 12.7139 11.2979 12.9426 12.094C13.4883 13.9927 16.2015 16.3392 18.7828 18.3818C18.9991 18.5532 19.3134 18.5167 19.4848 18.3004C19.6562 18.084 19.6197 17.7697 19.4034 17.5983C18.0403 16.5221 14.4307 13.666 13.896 11.8172Z" fill="#1DA775" stroke="#1DA775" stroke-width="0.25"/>
<path d="M17.6834 10.5293C16.5971 7.19874 13.0776 5.31735 9.70471 6.26416C6.2564 7.25359 4.2631 10.8511 5.25258 14.2995C5.25328 14.3019 5.25399 14.3044 5.25469 14.3068C6.07516 17.1569 4.31631 17.9474 3.75569 18.1213C3.49242 18.204 3.34613 18.4846 3.4289 18.7478C3.51168 19.0111 3.79222 19.1574 4.05549 19.0746C5.58348 18.597 7.0675 16.99 6.21503 14.03C5.37465 11.1131 7.05803 8.06722 9.9749 7.22684C9.97645 7.22642 9.97799 7.22595 9.97949 7.22553C12.8636 6.41485 15.8685 8.04937 16.755 10.9111C16.7668 10.95 16.7836 10.9873 16.805 11.022C16.8569 11.1079 16.9639 11.2888 20.1757 13.8951C20.3898 14.0692 20.7046 14.0368 20.8787 13.8226C21.0529 13.6085 21.0204 13.2937 20.8063 13.1196C19.6391 12.1722 17.9332 10.7642 17.6834 10.5293Z" fill="#1DA775" stroke="#1DA775" stroke-width="0.25"/>
<path d="M15.8187 11.2647C15.1285 8.88153 12.6413 7.50498 10.2554 8.18576C7.91267 8.90903 6.55294 11.3468 7.16842 13.7201C8.17776 18.317 7.42325 19.3783 5.35261 20.0259C5.08935 20.1086 4.94305 20.3892 5.02583 20.6524C5.1086 20.9157 5.38915 21.062 5.65241 20.9792C8.54548 20.0798 9.17408 18.1891 8.15073 13.5052C7.65358 11.6479 8.70466 9.728 10.5371 9.14611C12.3939 8.61897 14.3278 9.69062 14.8653 11.5445C15.0652 12.226 15.5958 13.1614 19.6881 16.4003C19.9044 16.5716 20.2187 16.5352 20.3901 16.3188C20.5615 16.1025 20.525 15.7882 20.3087 15.6168C16.5941 12.6788 15.9586 11.7484 15.8187 11.2647Z" fill="#1DA775" stroke="#1DA775" stroke-width="0.25"/>
<path d="M17.1939 18.2197C15.503 16.9366 12.6729 14.79 11.9764 12.3697C11.8956 12.1058 11.6162 11.9573 11.3523 12.0381C11.0949 12.1169 10.9462 12.3855 11.016 12.6455C11.8035 15.3856 14.7995 17.6581 16.5893 19.0162C16.953 19.2781 17.3032 19.5583 17.6386 19.8557C17.8371 20.0474 18.1534 20.0419 18.3451 19.8434C18.5322 19.6498 18.5322 19.3428 18.3451 19.1492C17.9792 18.8179 17.5948 18.5076 17.1939 18.2197Z" fill="#1DA775" stroke="#1DA775" stroke-width="0.25"/>
<path d="M14.4896 21.6958C13.9845 20.7589 13.0543 20.1271 11.9972 20.0029C10.2983 20.0029 10.0355 22.891 9.99854 23.4696C9.98144 23.745 10.1908 23.9821 10.4662 23.9993H10.4982C10.7625 23.9998 10.9815 23.7944 10.9979 23.5306C11.0609 22.5013 11.4546 21.0023 11.9972 21.0023C12.7377 21.0023 13.2634 21.7158 13.6851 22.2885C13.8244 22.4871 13.977 22.676 14.1418 22.8541C14.3403 23.0458 14.6566 23.0403 14.8483 22.8418C15.0354 22.6482 15.0354 22.3412 14.8483 22.1475C14.7191 22.0049 14.5992 21.854 14.4896 21.6958Z" fill="#1DA775" stroke="#1DA775" stroke-width="0.25"/>
<path d="M20.6454 10.5333C20.0209 10.3335 19.5302 9.53403 18.9615 8.6216C17.7584 6.67688 16.1084 4.01367 11.4975 4.01367C6.80848 4.0192 3.00865 7.81903 3.00317 12.508C3.00317 12.784 3.2269 13.0077 3.50286 13.0077C3.77881 13.0077 4.00254 12.784 4.00254 12.508C4.00694 8.37047 7.35997 5.01744 11.4975 5.01304C15.5518 5.01304 16.9719 7.30553 18.1132 9.14827C18.7847 10.2326 19.3643 11.1689 20.3377 11.4847C20.5992 11.5728 20.8826 11.4322 20.9707 11.1708C21.0588 10.9092 20.9183 10.6258 20.6568 10.5377C20.6534 10.5365 20.6499 10.5355 20.6465 10.5343L20.6454 10.5333Z" fill="#1DA775" stroke="#1DA775" stroke-width="0.25"/>
<path d="M4.00254 16.5052C4.2785 16.5052 4.50222 16.2814 4.50218 16.0055C4.50218 15.9278 4.48405 15.8511 4.44924 15.7817C4.23601 15.3819 4.08531 14.9519 4.00254 14.5065C4.00254 14.2306 3.77881 14.0068 3.50286 14.0068C3.2269 14.0068 3.00317 14.2306 3.00317 14.5065C3.08337 15.1091 3.27056 15.6926 3.55579 16.2294C3.64058 16.3984 3.81348 16.5052 4.00254 16.5052Z" fill="#1DA775" stroke="#1DA775" stroke-width="0.25"/>
<path d="M3.74256 5.93903C3.97819 6.08266 4.28567 6.00813 4.42929 5.77251C4.42957 5.77204 4.42986 5.77162 4.43009 5.77115C4.86382 5.05561 7.00036 3.01397 10.9977 3.01397C14.8392 3.01397 17.5724 4.95967 18.065 5.77115C18.2082 6.0071 18.5156 6.08224 18.7516 5.93903C18.9875 5.79583 19.0626 5.48844 18.9194 5.25249C18.2339 4.12323 15.2069 2.01465 10.9977 2.01465C6.52171 2.01465 4.12233 4.35211 3.57467 5.25348C3.43204 5.48919 3.50717 5.79588 3.74256 5.93903Z" fill="#1DA775" stroke="#1DA775" stroke-width="0.25"/>
<path d="M6.70064 1.97083C6.92947 1.87091 7.12336 1.77095 7.30722 1.67103C8.05874 1.2923 8.59936 1.01545 10.9978 1.01545C12.6172 0.926215 14.237 1.18554 15.7476 1.77596C15.9385 1.84693 16.1304 1.91785 16.3312 1.98681C16.3836 2.00498 16.4386 2.01444 16.4941 2.01477C16.7701 2.01529 16.9942 1.79198 16.9947 1.51603C16.995 1.30214 16.8593 1.11176 16.657 1.04243C16.4631 0.975495 16.2792 0.907524 16.0954 0.842552C14.4737 0.210114 12.7363 -0.0715577 10.9978 0.0161339C8.35559 0.0161339 7.69401 0.355892 6.85457 0.786621C6.6857 0.873563 6.50582 0.965517 6.29595 1.05944C6.03953 1.16137 5.91427 1.4519 6.01616 1.70832C6.11809 1.96474 6.40861 2.09 6.66504 1.98812C6.67815 1.98292 6.69104 1.97716 6.70364 1.97083H6.70064Z" fill="#1DA775" stroke="#1DA775" stroke-width="0.25"/>
<path d="M20.015 8.66205C20.1089 8.92152 20.3954 9.05573 20.6549 8.96181C20.8989 8.87346 21.0347 8.61291 20.9673 8.36225C20.6838 7.62816 20.3322 6.92218 19.917 6.25367C19.7724 6.01856 19.4646 5.94516 19.2295 6.08976C18.9944 6.23437 18.921 6.54218 19.0656 6.77729C19.4376 7.37605 19.7553 8.0068 20.015 8.66205Z" fill="#1DA775" stroke="#1DA775" stroke-width="0.25"/>
<path d="M16.6078 21.6239C16.4954 21.6238 16.3862 21.5858 16.2981 21.516C13.2851 19.1306 9.99827 16.3255 9.09887 13.1985C8.77682 11.8568 9.60343 10.5082 10.9451 10.1861C12.2026 9.8843 13.4826 10.592 13.8957 11.8174C14.4273 13.6652 18.0369 16.5223 19.392 17.5976C19.6136 17.7621 19.6599 18.075 19.4955 18.2966C19.331 18.5182 19.018 18.5645 18.7965 18.4001C18.7883 18.394 18.7802 18.3876 18.7724 18.3811C16.1911 16.3384 13.4759 13.993 12.9313 12.0933C12.7025 11.2974 11.8719 10.8377 11.0761 11.0665C10.2802 11.2952 9.82046 12.1259 10.0492 12.9217C10.8667 15.7638 14.0196 18.443 16.9107 20.7315C17.1271 20.9028 17.1635 21.2171 16.9922 21.4334C16.8973 21.5533 16.7528 21.6231 16.5999 21.6229L16.6078 21.6239Z" fill="#1DA775" stroke="#1DA775" stroke-width="0.25"/>
<path d="M3.90231 19.0939C3.62635 19.0934 3.40305 18.8693 3.40357 18.5933C3.40394 18.3754 3.54555 18.1829 3.75344 18.1175C4.31205 17.9426 6.0709 17.1522 5.25244 14.3031C4.26076 10.8554 6.25171 7.25659 9.69937 6.2649C9.70106 6.26444 9.70279 6.26392 9.70448 6.26345C13.0777 5.31599 16.5978 7.19752 17.6842 10.5286C17.933 10.7625 19.6389 12.1715 20.8061 13.1189C21.0149 13.2993 21.038 13.6148 20.8577 13.8237C20.685 14.0236 20.3865 14.0546 20.1765 13.8944C16.9636 11.2871 16.8567 11.1063 16.8047 11.0203C16.7841 10.9857 16.7676 10.9488 16.7558 10.9104C15.8693 8.04815 12.8637 6.41349 9.97931 7.22483C7.06178 8.0631 5.37625 11.1078 6.21452 14.0252C6.21461 14.0256 6.21471 14.0259 6.2148 14.0263C7.06624 16.9853 5.58321 18.5932 4.05423 19.0709C4.00509 19.0864 3.95384 19.0942 3.90231 19.0939Z" fill="#1DA775" stroke="#1DA775" stroke-width="0.25"/>
<path d="M5.50143 21.002C5.22548 21.0015 5.00217 20.7774 5.00269 20.5015C5.00306 20.2835 5.14467 20.091 5.35256 20.0257C7.4232 19.3781 8.17668 18.3148 7.16734 13.7199C6.55237 11.3466 7.91192 8.90925 10.2543 8.18556C12.6402 7.50651 15.1266 8.88232 15.8186 11.2645C15.9575 11.7472 16.5921 12.6776 20.3006 15.6136C20.5222 15.7781 20.5686 16.0911 20.4041 16.3126C20.2396 16.5343 19.9267 16.5806 19.7051 16.4161C19.6969 16.41 19.6888 16.4037 19.681 16.3971C15.5837 13.1572 15.0531 12.2209 14.8582 11.5413C14.3227 9.68545 12.3865 8.61278 10.5291 9.14291C8.69454 9.72527 7.64337 11.6484 8.14366 13.507C9.17197 18.1919 8.54338 20.0777 5.64534 20.981C5.59868 20.9951 5.5502 21.0022 5.50143 21.002Z" fill="#1DA775" stroke="#1DA775" stroke-width="0.25"/>
<path d="M17.993 20.0027C17.8604 20.0029 17.7331 19.9504 17.6392 19.8567C17.3038 19.5591 16.9536 19.2786 16.5899 19.0163C14.8001 17.6582 11.8041 15.3857 11.0166 12.6456C10.9359 12.3817 11.0843 12.1023 11.3482 12.0215C11.612 11.9408 11.8914 12.0892 11.9722 12.353C11.9739 12.3586 11.9755 12.3641 11.977 12.3697C12.6765 14.7901 15.5026 16.9366 17.1935 18.2198C17.5947 18.5082 17.9794 18.8187 18.3457 19.1502C18.5406 19.3456 18.5401 19.662 18.3446 19.8568C18.2513 19.95 18.1249 20.0024 17.993 20.0027Z" fill="#1DA775" stroke="#1DA775" stroke-width="0.25"/>
<path d="M10.4982 24.0003H10.4662C10.1908 23.9831 9.98144 23.746 9.99854 23.4706C10.0345 22.892 10.2983 20.0039 11.9972 20.0039C13.0565 20.1271 13.989 20.7593 14.4955 21.6978C14.6045 21.8562 14.724 22.0071 14.8533 22.1495C15.045 22.348 15.0395 22.6643 14.841 22.8561C14.6473 23.0431 14.3404 23.0431 14.1467 22.8561C13.9816 22.6787 13.829 22.49 13.69 22.2914C13.2643 21.7158 12.7387 21.0023 11.9972 21.0023C11.4555 21.0023 11.0608 22.5013 10.9978 23.5316C10.9815 23.7954 10.7625 24.0008 10.4982 24.0003Z" fill="#1DA775" stroke="#1DA775" stroke-width="0.25"/>
<path d="M3.50286 13.0077C3.2269 13.0077 3.00317 12.784 3.00317 12.508C3.0087 7.81899 6.80848 4.01915 11.4975 4.01367C16.1084 4.01367 17.7583 6.67689 18.9625 8.62161C19.5312 9.53802 20.0218 10.3305 20.6464 10.5334C20.9098 10.6158 21.0564 10.8961 20.974 11.1595C20.8917 11.4228 20.6113 11.5695 20.3479 11.4871C20.3445 11.486 20.341 11.4849 20.3376 11.4837C19.3643 11.1679 18.7847 10.2315 18.1131 9.14729C16.9719 7.30553 15.5518 5.01304 11.4975 5.01304C7.35993 5.01744 4.0069 8.37048 4.00249 12.5081C4.00249 12.784 3.77881 13.0077 3.50286 13.0077Z" fill="#1DA775" stroke="#1DA775" stroke-width="0.25"/>
<path d="M4.00249 16.5052C3.81305 16.5056 3.63969 16.3988 3.55481 16.2294C3.26967 15.6926 3.08285 15.1091 3.00317 14.5065C3.00317 14.2306 3.2269 14.0068 3.50286 14.0068C3.77881 14.0068 4.00254 14.2306 4.00254 14.5065C4.08554 14.9519 4.23619 15.3819 4.44924 15.7817C4.57286 16.0284 4.47308 16.3286 4.22636 16.4522C4.15684 16.4871 4.0802 16.5052 4.00249 16.5052Z" fill="#1DA775" stroke="#1DA775" stroke-width="0.25"/>
<path d="M18.4927 6.01197C18.3178 6.01206 18.1556 5.92072 18.065 5.77115C17.5733 4.95967 14.8391 3.01397 10.9977 3.01397C7.00036 3.01397 4.86377 5.05561 4.42906 5.77115C4.29443 6.01202 3.98999 6.09816 3.74912 5.96349C3.50825 5.82886 3.42211 5.52442 3.55678 5.28355C3.56268 5.27296 3.56901 5.26261 3.57566 5.25249C4.12228 4.35211 6.52171 2.01465 10.9977 2.01465C15.2069 2.01465 18.2339 4.12323 18.9194 5.25348C19.0624 5.48952 18.9869 5.79677 18.7509 5.93969C18.6729 5.98686 18.5837 6.01188 18.4927 6.01197Z" fill="#1DA775" stroke="#1DA775" stroke-width="0.25"/>
<path d="M16.4941 2.01467C16.4387 2.01476 16.3836 2.00568 16.3312 1.98769C16.1313 1.91873 15.9375 1.84678 15.7466 1.77684C14.2363 1.18633 12.617 0.926629 10.9978 1.01535C8.59934 1.01535 8.05872 1.29215 7.31222 1.67491C7.12835 1.76986 6.93348 1.8688 6.70563 1.97471C6.45286 2.08648 6.15733 1.97218 6.04556 1.71937C5.93379 1.4666 6.04809 1.17106 6.3009 1.05929C6.51175 0.964339 6.69064 0.872431 6.86055 0.785489C7.69399 0.355791 8.35655 0.0159858 10.9978 0.0159858C12.7358 -0.0726426 14.4728 0.207999 16.0944 0.839453C16.2783 0.907423 16.4622 0.976377 16.656 1.03934C16.9188 1.12365 17.0634 1.40505 16.9791 1.66779C16.9116 1.87775 16.7146 2.01875 16.4941 2.01467Z" fill="#1DA775" stroke="#1DA775" stroke-width="0.25"/>
<path d="M20.4917 9.01039C20.2744 9.01025 20.0821 8.86967 20.016 8.66262C19.7564 8.00606 19.4387 7.37395 19.0666 6.77388C18.922 6.53877 18.9953 6.23096 19.2305 6.08635C19.4656 5.94175 19.7734 6.01511 19.918 6.25026C20.3328 6.91886 20.6841 7.6248 20.9673 8.35884C21.0512 8.62173 20.9061 8.90289 20.6432 8.98674C20.5943 9.00238 20.5431 9.01039 20.4917 9.01039Z" fill="#1DA775" stroke="#1DA775" stroke-width="0.25"/>
</g>
<defs>
<clipPath id="clip0">
<rect width="24" height="24" fill="white"/>
</clipPath>
</defs>
</svg>
