<svg width="24" height="24" viewBox="0 0 24 24" fill="none" xmlns="http://www.w3.org/2000/svg">
<g clip-path="url(#clip0)">
<path d="M20.0001 22.8999C19.9001 22.8999 19.8001 22.8999 19.7001 22.8999C16.5001 22.4999 13.3001 21.3999 10.6001 19.6999C8.1001 18.0999 5.9001 15.8999 4.3001 13.3999C2.5001 10.6999 1.4001 7.4999 1.1001 4.2999C1.1001 3.4999 1.3001 2.6999 1.8001 2.0999C2.3001 1.4999 3.0001 1.0999 3.8001 0.999902C3.9001 0.999902 4.0001 0.999902 4.1001 0.999902H7.1001C8.6001 0.999902 9.9001 2.0999 10.1001 3.5999C10.2001 4.4999 10.4001 5.3999 10.7001 6.1999C11.1001 7.2999 10.8001 8.4999 10.0001 9.3999L9.3001 10.0999C10.5001 11.8999 12.0001 13.4999 13.9001 14.6999L14.6001 13.9999C15.4001 13.1999 16.7001 12.8999 17.8001 13.2999C18.6001 13.5999 19.5001 13.7999 20.4001 13.8999C21.9001 14.0999 23.0001 15.3999 23.0001 16.8999V19.8999C23.0001 20.6999 22.7001 21.4999 22.1001 21.9999C21.5001 22.4999 20.8001 22.8999 20.0001 22.8999ZM7.1001 2.9999H4.1001C3.8001 2.9999 3.5001 3.1999 3.3001 3.3999C3.2001 3.5999 3.1001 3.7999 3.1001 4.0999C3.4001 6.9999 4.4001 9.7999 6.0001 12.2999C7.5001 14.5999 9.4001 16.5999 11.7001 17.9999C14.2001 19.5999 17.0001 20.5999 19.9001 20.8999C20.3001 20.8999 20.5001 20.7999 20.7001 20.5999C20.9001 20.3999 21.0001 20.1999 21.0001 19.8999V16.8999C21.0001 16.3999 20.6001 15.9999 20.1001 15.8999C19.1001 15.7999 18.1001 15.4999 17.1001 15.0999C16.7001 14.9999 16.3001 14.9999 16.0001 15.2999L14.7001 16.5999C14.4001 16.8999 13.9001 16.9999 13.5001 16.7999C10.8001 15.2999 8.6001 13.0999 7.1001 10.3999C7.0001 9.9999 7.1001 9.4999 7.4001 9.1999L8.7001 7.8999C8.9001 7.6999 9.0001 7.1999 8.9001 6.8999C8.5001 5.8999 8.3001 4.8999 8.1001 3.8999C8.1001 3.3999 7.6001 2.9999 7.1001 2.9999ZM19.0001 9.9999C18.5001 9.9999 18.1001 9.6999 18.0001 9.1999C17.7001 7.5999 16.4001 6.3999 14.8001 5.9999C14.3001 5.8999 13.9001 5.3999 14.0001 4.7999C14.1001 4.2999 14.6001 3.8999 15.2001 3.9999C17.6001 4.4999 19.5001 6.2999 19.9001 8.6999C20.0001 9.1999 19.7001 9.7999 19.1001 9.8999C19.1001 9.8999 19.1001 9.9999 19.0001 9.9999ZM23.0001 9.8999C22.5001 9.8999 22.1001 9.4999 22.0001 8.9999C21.6001 5.2999 18.7001 2.3999 14.9001 1.8999C14.4001 1.7999 14.0001 1.2999 14.0001 0.799902C14.0001 0.299902 14.6001 -0.100098 15.1001 -0.100098C19.8001 0.399902 23.4001 3.9999 23.9001 8.6999C24.0001 9.1999 23.6001 9.6999 23.0001 9.7999C23.1001 9.8999 23.0001 9.8999 23.0001 9.8999Z" fill="#1DA775"/>
</g>
<defs>
<clipPath id="clip0">
<rect width="24" height="24" fill="white"/>
</clipPath>
</defs>
</svg>
