<svg width="18" height="18" viewBox="0 0 18 18" fill="none" xmlns="http://www.w3.org/2000/svg">
<path d="M12.0314 1.5H5.96858C3.5046 1.5 1.5 3.5046 1.5 5.96858V12.0314C1.5 14.4954 3.5046 16.5 5.96858 16.5H12.0314C14.4954 16.5 16.5 14.4954 16.5 12.0314V5.96858C16.5 3.5046 14.4954 1.5 12.0314 1.5ZM14.991 12.0314C14.991 13.6659 13.6659 14.991 12.0314 14.991H5.96858C4.33406 14.991 3.009 13.6659 3.009 12.0314V5.96858C3.009 4.33404 4.33406 3.009 5.96858 3.009H12.0314C13.6659 3.009 14.991 4.33404 14.991 5.96858V12.0314Z" fill="white"/>
<path d="M9.00051 5.12047C6.86133 5.12047 5.12097 6.86083 5.12097 8.99998C5.12097 11.1391 6.86133 12.8795 9.00051 12.8795C11.1397 12.8795 12.88 11.1392 12.88 8.99998C12.88 6.8608 11.1397 5.12047 9.00051 5.12047ZM9.00051 11.3705C7.69129 11.3705 6.62997 10.3092 6.62997 9.00001C6.62997 7.69079 7.69131 6.62947 9.00051 6.62947C10.3097 6.62947 11.371 7.69079 11.371 9.00001C11.371 10.3092 10.3097 11.3705 9.00051 11.3705Z" fill="white"/>
<path d="M12.8868 6.07922C13.4002 6.07922 13.8164 5.66302 13.8164 5.1496C13.8164 4.63619 13.4002 4.21999 12.8868 4.21999C12.3734 4.21999 11.9572 4.63619 11.9572 5.1496C11.9572 5.66302 12.3734 6.07922 12.8868 6.07922Z" fill="white"/>
</svg>
