<svg width="18" height="18" viewBox="0 0 18 18" fill="none" xmlns="http://www.w3.org/2000/svg">
<path d="M13.9393 1.50312L11.9605 1.5C9.73742 1.5 8.30074 2.94892 8.30074 5.19152V6.89356H6.31115C6.13922 6.89356 6 7.03057 6 7.19957V9.66563C6 9.83463 6.13938 9.97149 6.31115 9.97149H8.30074V16.1941C8.30074 16.3631 8.43996 16.5 8.61189 16.5H11.2077C11.3797 16.5 11.5189 16.363 11.5189 16.1941V9.97149H13.8452C14.0171 9.97149 14.1563 9.83463 14.1563 9.66563L14.1573 7.19957C14.1573 7.11843 14.1244 7.04071 14.0662 6.98329C14.0079 6.92586 13.9285 6.89356 13.846 6.89356H11.5189V5.45072C11.5189 4.75723 11.687 4.40518 12.606 4.40518L13.939 4.40472C14.1108 4.40472 14.25 4.2677 14.25 4.09886V1.80898C14.25 1.64029 14.1109 1.50343 13.9393 1.50312Z" fill="white"/>
</svg>
